<svg xmlns="http://www.w3.org/2000/svg" id="prefix__noun_creative_brain_2075922" width="92.059" height="109.107" data-name="noun_creative brain_2075922" viewBox="0 0 92.059 109.107">
    <defs>
        <style>
            .prefix__cls-1{fill:#212a53}
        </style>
    </defs>
    <g id="prefix__Group_374" data-name="Group 374" transform="translate(13.127 11.029)">
        <path id="prefix__Path_171" d="M49.414 41.2a1.7 1.7 0 1 1 0-3.41 2.591 2.591 0 0 0 2.557-2.39v-.17a1.851 1.851 0 0 1 .682-1.534c4.6-3.239-3.751-7.672-3.751-3.239a1.7 1.7 0 1 1-3.41 0 5.458 5.458 0 0 1 4.432-5.285 2.766 2.766 0 0 0-2.9-4.092 6.208 6.208 0 0 1-5.114 3.239 7.25 7.25 0 0 1-1.875-.341A1.679 1.679 0 1 1 41.4 20.91c.852.341 2.046-.341 2.728-1.7a2.783 2.783 0 0 0-3.069-3.069 1.731 1.731 0 0 1-1.7-.852 2.836 2.836 0 0 0-5.285 1.364v9.206a3.38 3.38 0 0 0 4.432-.341A1.688 1.688 0 1 1 40.89 27.9a6.828 6.828 0 0 1-4.944 2.046A8.557 8.557 0 0 1 33.9 29.6v5.114a7.11 7.11 0 0 1 6.99 1.7 1.648 1.648 0 0 1 0 2.387 1.648 1.648 0 0 1-2.387 0 3.38 3.38 0 0 0-4.432-.341v5.626a6.3 6.3 0 0 1 3.58-1.023 1.7 1.7 0 1 1 0 3.41 3.6 3.6 0 0 0-3.58 3.58v4.773c0 3.921 5.967 3.58 5.626-.17a2.1 2.1 0 0 1 .852-1.7 1.55 1.55 0 0 1 1.875.17 2.738 2.738 0 0 0 4.432-2.216 5.43 5.43 0 0 1-4.091-5.11 1.7 1.7 0 0 1 3.41 0c0 3.41 7.5 2.216 5.455-2.046a3.324 3.324 0 0 1-.17-1.364 1.746 1.746 0 0 1 .852-1.023 2.735 2.735 0 0 0 1.534-2.9 4.632 4.632 0 0 1-4.432 2.733z" class="prefix__cls-1" data-name="Path 171" transform="translate(.537 -2.957)"/>
        <path id="prefix__Path_172" d="M35.043 15.484a2.1 2.1 0 0 1-1.7.852C28.905 16 29.928 22.3 33 20.939a1.679 1.679 0 0 1 1.364 3.069 6.129 6.129 0 0 1-1.875.341 4.811 4.811 0 0 1-2.557-.682 7.341 7.341 0 0 1-2.557-2.557 2.794 2.794 0 0 0-2.9 4.092 5.484 5.484 0 0 1 4.432 5.285 1.7 1.7 0 1 1-3.41 0c0-2.387-3.751-2.728-4.773 0a2.881 2.881 0 0 0 1.023 3.239 1.662 1.662 0 0 1 .682 1.534 2.591 2.591 0 0 0 2.557 2.387 1.7 1.7 0 0 1 0 3.41 5.974 5.974 0 0 1-4.773-2.387 2.735 2.735 0 0 0 1.534 2.9 1.746 1.746 0 0 1 .853 1.02 1.335 1.335 0 0 1-.17 1.364c-2.216 4.432 5.455 5.455 5.455 2.046a1.7 1.7 0 0 1 3.41 0 5.43 5.43 0 0 1-4.095 5.114c0 2.046 2.557 3.751 4.432 2.216a2.423 2.423 0 0 1 1.023-.341 1.537 1.537 0 0 1 .852.17 2.1 2.1 0 0 1 .852 1.7c-.341 3.921 5.626 4.092 5.626.17v-4.767a3.6 3.6 0 0 0-3.58-3.58 1.7 1.7 0 0 1 0-3.41 6.3 6.3 0 0 1 3.58 1.023v-5.626a3.38 3.38 0 0 0-4.432.341 1.688 1.688 0 0 1-2.387-2.387 7.11 7.11 0 0 1 6.99-1.7V29.8a8.557 8.557 0 0 1-2.046.341 7.118 7.118 0 0 1-4.943-2.041 1.688 1.688 0 0 1 2.387-2.387 3.38 3.38 0 0 0 4.432.341v-9.206c.341-2.728-3.409-3.921-4.943-1.364z" class="prefix__cls-1" data-name="Path 172" transform="translate(-9.13 -2.816)"/>
        <path id="prefix__Path_173" d="M69.447 16.557a32.3 32.3 0 0 0-24.379-9.035A33.362 33.362 0 0 0 13.7 40.595a33.176 33.176 0 0 0 8.354 21.821 25.182 25.182 0 0 1 6.478 13.809 11.014 11.014 0 0 1 5.8-1.7h25.227a9.734 9.734 0 0 1 5.455 1.534 24.392 24.392 0 0 1 6.137-13.468 32.691 32.691 0 0 0 8.694-22.162 33.549 33.549 0 0 0-10.398-23.872zM64.5 55.938A6.252 6.252 0 0 1 57 61.9a6.015 6.015 0 0 1-1.364 2.216 6.336 6.336 0 0 1-9.206 0 6.2 6.2 0 0 1-10.4-2.216 6.183 6.183 0 0 1-7.5-5.967 6.393 6.393 0 0 1-4.944-7.5 6.251 6.251 0 0 1-.852-8.865 6.176 6.176 0 0 1-.852-5.455 5.889 5.889 0 0 1 3.58-3.921 6.289 6.289 0 0 1 5.967-8.013 6.16 6.16 0 0 1 5.626-4.944 6.145 6.145 0 0 1 9.376-.17 6.2 6.2 0 0 1 9.206.17 6 6 0 0 1 5.626 4.944 6.371 6.371 0 0 1 5.968 8.021 6.225 6.225 0 0 1 2.728 9.376 6.265 6.265 0 0 1-.852 8.865 5.829 5.829 0 0 1-4.607 7.497z" class="prefix__cls-1" data-name="Path 173" transform="translate(-13.7 -7.469)"/>
    </g>
    <path id="prefix__Path_174" d="M33.7 10.206a1.611 1.611 0 0 0 1.7-1.7V2.7a1.7 1.7 0 1 0-3.4 0v5.8a1.611 1.611 0 0 0 1.7 1.706z" class="prefix__cls-1" data-name="Path 174" transform="translate(12.325 -1)"/>
    <path id="prefix__Path_175" d="M22.1 12.169a1.888 1.888 0 0 0 2.387.682 1.888 1.888 0 0 0 .682-2.387l-2.9-5.114a1.888 1.888 0 0 0-2.387-.682 1.725 1.725 0 0 0-.682 2.387z" class="prefix__cls-1" data-name="Path 175" transform="translate(3.134 1.469)"/>
    <path id="prefix__Path_176" d="M10.268 17.268l5.114 2.9a1.755 1.755 0 0 0 1.7-3.069l-5.114-2.9a1.725 1.725 0 0 0-2.387.682 1.888 1.888 0 0 0 .687 2.387z" class="prefix__cls-1" data-name="Path 176" transform="translate(-3.619 8.134)"/>
    <path id="prefix__Path_177" d="M15.206 28.7A1.611 1.611 0 0 0 13.5 27H7.7a1.7 1.7 0 0 0 0 3.41h5.8a1.611 1.611 0 0 0 1.706-1.71z" class="prefix__cls-1" data-name="Path 177" transform="translate(-6 17.325)"/>
    <path id="prefix__Path_178" d="M15.364 38.6l-5.114 2.9a1.888 1.888 0 0 0-.682 2.387 1.888 1.888 0 0 0 2.387.682l5.114-2.9a1.888 1.888 0 0 0 .682-2.387 1.725 1.725 0 0 0-2.387-.682z" class="prefix__cls-1" data-name="Path 178" transform="translate(-3.601 25.331)"/>
    <path id="prefix__Path_179" d="M59.3 41.5l-5.114-2.9a1.755 1.755 0 0 0-1.7 3.069l5.114 2.9a1.725 1.725 0 0 0 2.387-.682A2.108 2.108 0 0 0 59.3 41.5z" class="prefix__cls-1" data-name="Path 179" transform="translate(26.11 25.331)"/>
    <path id="prefix__Path_180" d="M62.1 27h-5.8a1.7 1.7 0 1 0 0 3.41h5.8a1.7 1.7 0 0 0 0-3.41z" class="prefix__cls-1" data-name="Path 180" transform="translate(28.253 17.325)"/>
    <path id="prefix__Path_181" d="M54.155 20.135l5.114-2.9a1.888 1.888 0 0 0 .682-2.387 1.888 1.888 0 0 0-2.387-.682l-5.114 2.9a1.888 1.888 0 0 0-.682 2.387 1.725 1.725 0 0 0 2.387.682z" class="prefix__cls-1" data-name="Path 181" transform="translate(26.141 8.165)"/>
    <path id="prefix__Path_182" d="M44.181 12.737a1.725 1.725 0 0 0 2.387-.682l2.9-5.114a1.725 1.725 0 0 0-.682-2.387 1.96 1.96 0 0 0-2.387.852l-2.9 5.114a1.539 1.539 0 0 0 .682 2.217z" class="prefix__cls-1" data-name="Path 182" transform="translate(20.26 1.413)"/>
    <g id="prefix__Group_375" data-name="Group 375" transform="translate(26.765 81.319)">
        <path id="prefix__Path_183" d="M60.569 55.69a6.775 6.775 0 0 1-6.478 6.819v1.023a12.956 12.956 0 0 1-25.913 0v-1.023A6.892 6.892 0 0 1 21.7 55.69a6.987 6.987 0 0 1 6.819-6.99H53.75a6.877 6.877 0 0 1 6.819 6.99z" class="prefix__cls-1" data-name="Path 183" transform="translate(-21.7 -48.7)"/>
    </g>
</svg>
