<svg xmlns="http://www.w3.org/2000/svg" width="86.716" height="66.697" viewBox="0 0 86.716 66.697">
  <g id="Group_366" data-name="Group 366" transform="matrix(0.996, 0.087, -0.087, 0.996, -285.052, -908.37)">
    <g id="Polygon_2" data-name="Polygon 2" transform="translate(401.592 876.705) rotate(22)" fill="none">
      <path d="M22.664,7.547a5,5,0,0,1,8.671,0L49.7,39.509A5,5,0,0,1,45.361,47H8.639A5,5,0,0,1,4.3,39.509Z" stroke="none"/>
      <path d="M 26.99999618530273 20.07529830932617 L 17.27729797363281 36.99999618530273 L 36.72270202636719 36.99999618530273 L 26.99999618530273 20.07529830932617 M 27 5.037654876708984 C 28.68724632263184 5.037654876708984 30.37449073791504 5.874114990234375 31.33553314208984 7.547031402587891 L 49.69688415527344 39.50938034057617 C 51.61176681518555 42.84269714355469 49.20555114746094 46.99999618530273 45.36135101318359 46.99999618530273 L 8.638648986816406 46.99999618530273 C 4.794448852539062 46.99999618530273 2.388233184814453 42.84269714355469 4.303115844726562 39.50938034057617 L 22.66446685791016 7.547031402587891 C 23.62550926208496 5.874114990234375 25.31275367736816 5.037654876708984 27 5.037654876708984 Z" stroke="none" fill="#e7792c"/>
    </g>
    <g id="Ellipse_36" data-name="Ellipse 36" transform="translate(368.601 896.518)" fill="none" stroke="#00a3da" stroke-width="10">
      <circle cx="23" cy="23" r="23" stroke="none"/>
      <circle cx="23" cy="23" r="18" fill="none"/>
    </g>
  </g>
</svg>
