<svg xmlns="http://www.w3.org/2000/svg" width="139.095" height="119.449" viewBox="0 0 139.095 119.449">
    <defs>
        <style>
            .prefix__cls-3{fill:#e09c77}.prefix__cls-6{fill:#f7b081}.prefix__cls-8{fill:#8c6b50}.prefix__cls-9{fill:#ffc89f}.prefix__cls-12{fill:#464649}
        </style>
    </defs>
    <g id="prefix__family" transform="translate(-.036 -72.327)">
        <path id="prefix__Path_137" d="M35.829 294.77A35.834 35.834 0 0 0 .036 330.563v.08a2.039 2.039 0 0 0 2.039 2.039h67.508a2.039 2.039 0 0 0 2.039-2.039v-.08a35.834 35.834 0 0 0-35.793-35.793z" data-name="Path 137" transform="translate(0 -161.965)" style="fill:#8cc7ec"/>
        <path id="prefix__Path_138" d="M117.877 294.77a35.961 35.961 0 0 0-5.156.373 35.847 35.847 0 0 1 30.637 35.42v.08a2.039 2.039 0 0 1-2.039 2.039h10.312a2.039 2.039 0 0 0 2.039-2.039v-.08a35.834 35.834 0 0 0-35.793-35.793z" data-name="Path 138" transform="translate(-82.048 -161.965)" style="fill:#66baea"/>
        <path id="prefix__Path_139" d="M112.478 295.929a36.188 36.188 0 0 0-18.017 0 2.039 2.039 0 0 0-1.511 2.228 10.6 10.6 0 0 0 21.039 0 2.039 2.039 0 0 0-1.511-2.228z" class="prefix__cls-3" data-name="Path 139" transform="translate(-67.641 -161.979)"/>
        <path id="prefix__Path_140" d="M71.29 84.92a18.735 18.735 0 0 0-13.828-8.843 17.63 17.63 0 0 0-9.652 1.438c-2.835-3.376-6.063-5.188-12.757-5.188-7.688 0-18.585 3.989-24.344 12.745-6.7 10.182-3.82 22.244-.228 30.569a2.04 2.04 0 0 0 1.873 1.232l55.925-.217s2.228-.166 2.611-1.225c5.826-16.131 3.433-25.496.4-30.511z" data-name="Path 140" transform="translate(-4.834 -.001)" style="fill:#6e563d"/>
        <g id="prefix__Group_359" data-name="Group 359" transform="translate(45.648 75.918)">
            <path id="prefix__Path_141" d="M188.608 94.536a18.735 18.735 0 0 0-13.828-8.843 17.4 17.4 0 0 0-6.979.473 18.458 18.458 0 0 1 11.427 8.37c3.033 5.014 5.427 14.378-.4 30.511-.382 1.059-2.611 1.225-2.611 1.225h9.38s2.228-.166 2.611-1.225c5.827-16.133 3.434-25.496.4-30.511z" data-name="Path 141" transform="translate(-167.801 -85.535)" style="fill:#604b35"/>
        </g>
        <path id="prefix__Path_142" d="M205.684 215.144a7.428 7.428 0 0 0-2.276.358 2.04 2.04 0 0 0-1.41 1.805 20.687 20.687 0 0 1-2.16 7.944 2.039 2.039 0 0 0 .3 2.272 7.433 7.433 0 1 0 5.546-12.379z" class="prefix__cls-3" data-name="Path 142" transform="translate(-145.321 -103.988)"/>
        <path id="prefix__Path_143" d="M27.382 225.251a20.7 20.7 0 0 1-2.16-7.944 2.039 2.039 0 0 0-1.41-1.805 7.436 7.436 0 1 0 3.269 12.021 2.039 2.039 0 0 0 .301-2.272z" class="prefix__cls-6" data-name="Path 143" transform="translate(-10.24 -103.988)"/>
        <path id="prefix__Path_144" d="M319.086 94.4a34.331 34.331 0 0 0-64.13 0c-3.752 9.788-3.765 31.467 1.569 42.815 1.968 4.188 4.54 6.843 7.645 7.892a2.036 2.036 0 0 0 2.691-1.932h40.321a2.037 2.037 0 0 0 2.691 1.932c3.1-1.049 5.676-3.7 7.645-7.892 5.333-11.35 5.32-33.03 1.568-42.815z" data-name="Path 144" transform="translate(-183.684)" style="fill:#a58260"/>
        <g id="prefix__Group_360" data-name="Group 360" transform="translate(77.134 72.327)">
            <path id="prefix__Path_145" d="M286.958 334.832a2.036 2.036 0 0 0 2.691-1.932h-6.043a10.222 10.222 0 0 0 3.352 1.932z" class="prefix__cls-8" data-name="Path 145" transform="translate(-283.606 -262.055)"/>
            <path id="prefix__Path_146" d="M399.356 94.4a34.306 34.306 0 0 0-36.8-21.739 34.343 34.343 0 0 1 27.32 21.739c3.752 9.788 3.765 31.468-1.569 42.815a17.386 17.386 0 0 1-4.292 5.96h3.436a2.037 2.037 0 0 0 2.691 1.932c3.1-1.049 5.676-3.7 7.645-7.892 5.334-11.35 5.321-33.03 1.569-42.815z" class="prefix__cls-8" data-name="Path 146" transform="translate(-341.087 -72.327)"/>
        </g>
        <path id="prefix__Path_148" d="M88.075 160.536c-10.094-1.735-17.08-11.979-17.148-12.08a2.034 2.034 0 0 0-3.579.351 16.646 16.646 0 0 1-5 5.827c-4.966 3.842-12.055 5.873-20.5 5.873a2.039 2.039 0 0 0-2.039 2.039v4.125a24.979 24.979 0 0 0 49.958 0v-4.125a2.039 2.039 0 0 0-1.692-2.01z" class="prefix__cls-9" data-name="Path 148" transform="translate(-28.96 -54.767)"/>
        <path id="prefix__Path_149" d="M143.042 187.9a21.076 21.076 0 0 1-7.207-2.773v8.909a25.019 25.019 0 0 1-20.535 24.583 24.99 24.99 0 0 0 29.433-24.581v-4.125a2.039 2.039 0 0 0-1.691-2.013z" class="prefix__cls-6" data-name="Path 149" transform="translate(-83.927 -82.134)"/>
        <path id="prefix__Path_150" d="M284.128 294.77a35.834 35.834 0 0 0-35.793 35.793v.08a2.039 2.039 0 0 0 2.039 2.039h67.508a2.039 2.039 0 0 0 2.039-2.039v-.08a35.834 35.834 0 0 0-35.793-35.793z" data-name="Path 150" transform="translate(-180.791 -161.965)" style="fill:#fd7dad"/>
        <path id="prefix__Path_151" d="M367.285 294.77a35.958 35.958 0 0 0-4.742.315 35.846 35.846 0 0 1 31.051 35.479v.08a2.039 2.039 0 0 1-2.039 2.039h9.484a2.039 2.039 0 0 0 2.039-2.039v-.08a35.834 35.834 0 0 0-35.793-35.794z" data-name="Path 151" transform="translate(-263.948 -161.965)" style="fill:#fc63a1"/>
        <path id="prefix__Path_152" d="M360.775 295.929a36.186 36.186 0 0 0-18.017 0 2.039 2.039 0 0 0-1.511 2.228 10.6 10.6 0 0 0 21.039 0 2.038 2.038 0 0 0-1.511-2.228z" class="prefix__cls-3" data-name="Path 152" transform="translate(-248.43 -161.979)"/>
        <path id="prefix__Path_153" d="M336.373 160.552c-10.094-1.735-17.08-11.979-17.148-12.08a2.039 2.039 0 0 0-3.583.364c-.048.117-5 11.687-25.494 11.687a2.039 2.039 0 0 0-2.039 2.039v4.125a24.979 24.979 0 0 0 49.958 0v-4.125a2.039 2.039 0 0 0-1.694-2.01z" class="prefix__cls-9" data-name="Path 153" transform="translate(-209.751 -54.783)"/>
        <path id="prefix__Path_154" d="M390.583 186.955a21.468 21.468 0 0 1-7.786-3.128v9.263a25.021 25.021 0 0 1-20.236 24.527 24.983 24.983 0 0 0 29.716-24.527v-4.125a2.039 2.039 0 0 0-1.694-2.01z" class="prefix__cls-6" data-name="Path 154" transform="translate(-263.961 -81.185)"/>
        <g id="prefix__Group_361" data-name="Group 361" transform="translate(90.552 112.699)">
            <path id="prefix__Path_155" d="M336.264 227.429a3.306 3.306 0 1 1 3.306-3.306 3.309 3.309 0 0 1-3.306 3.306z" class="prefix__cls-12" data-name="Path 155" transform="translate(-332.958 -220.817)"/>
            <path id="prefix__Path_156" d="M406 227.429a3.306 3.306 0 1 1 3.306-3.306 3.31 3.31 0 0 1-3.306 3.306z" class="prefix__cls-12" data-name="Path 156" transform="translate(-383.731 -220.817)"/>
        </g>
        <g id="prefix__Group_362" data-name="Group 362" transform="translate(23.044 112.699)">
            <path id="prefix__Path_157" d="M87.965 227.429a3.306 3.306 0 1 1 3.306-3.306 3.31 3.31 0 0 1-3.306 3.306z" class="prefix__cls-12" data-name="Path 157" transform="translate(-84.659 -220.817)"/>
            <path id="prefix__Path_158" d="M157.7 227.429a3.306 3.306 0 1 1 3.3-3.306 3.31 3.31 0 0 1-3.3 3.306z" class="prefix__cls-12" data-name="Path 158" transform="translate(-135.432 -220.817)"/>
        </g>
        <path id="prefix__Path_159" d="M148.838 427.4a21.443 21.443 0 0 1-2.561-8.427 2.039 2.039 0 0 0-1.686-1.827 7.435 7.435 0 1 0 3.865 12.71 2.038 2.038 0 0 0 .382-2.456z" class="prefix__cls-6" data-name="Path 159" transform="translate(-98.927 -250.992)"/>
        <path id="prefix__Path_160" d="M328.324 417.042a7.44 7.44 0 0 0-1.253.109 2.038 2.038 0 0 0-1.686 1.827 21.446 21.446 0 0 1-2.561 8.427 2.039 2.039 0 0 0 .382 2.456 7.432 7.432 0 1 0 5.118-12.819z" class="prefix__cls-3" data-name="Path 160" transform="translate(-234.845 -250.993)"/>
        <path id="prefix__Path_161" d="M184.491 322.149a25.764 25.764 0 1 0 25.764 25.764 25.793 25.793 0 0 0-25.764-25.764z" class="prefix__cls-9" data-name="Path 161" transform="translate(-115.546 -181.9)"/>
        <path id="prefix__Path_162" d="M240.794 322.149a25.818 25.818 0 0 0-4.74.439 25.765 25.765 0 0 1 0 50.65 25.764 25.764 0 1 0 4.74-51.088z" class="prefix__cls-6" data-name="Path 162" transform="translate(-171.849 -181.9)"/>
        <g id="prefix__Group_363" data-name="Group 363" transform="translate(56.159 165.144)">
            <path id="prefix__Path_163" d="M209.767 420.327a3.306 3.306 0 1 1 3.306-3.306 3.31 3.31 0 0 1-3.306 3.306z" class="prefix__cls-12" data-name="Path 163" transform="translate(-206.461 -413.715)"/>
            <path id="prefix__Path_164" d="M279.5 420.327a3.306 3.306 0 1 1 3.306-3.306 3.31 3.31 0 0 1-3.306 3.306z" class="prefix__cls-12" data-name="Path 164" transform="translate(-257.235 -413.715)"/>
        </g>
        <path id="prefix__Path_165" d="M221.506 304.063a2.039 2.039 0 0 1-.528-.07 13.062 13.062 0 0 1-9.831-9.918 2.039 2.039 0 0 1 4.023-.67 8.692 8.692 0 0 0 3.85 5.342 19.157 19.157 0 0 1 .279-5.248 2.039 2.039 0 0 1 3.983.877 20.375 20.375 0 0 0 .217 7.217 2.039 2.039 0 0 1-1.993 2.468z" class="prefix__cls-12" data-name="Path 165" transform="translate(-153.694 -159.736)"/>
    </g>
</svg>
