<svg xmlns="http://www.w3.org/2000/svg" width="22.895" height="15" viewBox="0 0 22.895 15">
    <defs>
        <style>
            .prefix__cls-1{fill:#f5f5f5}.prefix__cls-2{fill:#ff4b55}
        </style>
    </defs>
    <g id="prefix__flag" transform="translate(0 -88.275)">
        <path id="prefix__Path_593" d="M21.18 88.276H1.715A1.715 1.715 0 0 0 0 89.991v11.571a1.715 1.715 0 0 0 1.715 1.715H21.18a1.715 1.715 0 0 0 1.715-1.715V89.991a1.715 1.715 0 0 0-1.715-1.715z" class="prefix__cls-1" data-name="Path 593" transform="translate(0 -.001)"/>
        <g id="prefix__Group_944" data-name="Group 944" transform="translate(0 88.275)">
            <path id="prefix__Path_594" d="M2.109 89.428h22.706a1.715 1.715 0 0 0-1.62-1.152H3.729a1.715 1.715 0 0 0-1.62 1.152z" class="prefix__cls-2" data-name="Path 594" transform="translate(-2.015 -88.276)"/>
            <path id="prefix__Rectangle_143" d="M0 0H22.895V1.152H0z" class="prefix__cls-2" data-name="Rectangle 143" transform="translate(0 4.616)"/>
            <path id="prefix__Rectangle_144" d="M0 0H22.895V1.152H0z" class="prefix__cls-2" data-name="Rectangle 144" transform="translate(0 2.308)"/>
            <path id="prefix__Path_595" d="M0 243.856a.394.394 0 0 0 .395.394h22.5v-1.15H0z" class="prefix__cls-2" data-name="Path 595" transform="translate(0 -236.174)"/>
            <path id="prefix__Rectangle_145" d="M0 0H22.895V1.152H0z" class="prefix__cls-2" data-name="Rectangle 145" transform="translate(0 11.541)"/>
            <path id="prefix__Path_596" d="M24.815 397.92H2.109a1.715 1.715 0 0 0 1.62 1.152H23.2a1.715 1.715 0 0 0 1.615-1.152z" class="prefix__cls-2" data-name="Path 596" transform="translate(-2.015 -384.072)"/>
            <path id="prefix__Rectangle_146" d="M0 0H22.895V1.152H0z" class="prefix__cls-2" data-name="Rectangle 146" transform="translate(0 9.232)"/>
        </g>
        <path id="prefix__Path_597" d="M.394 96.337h9.85a.394.394 0 0 0 .394-.394v-7.274a.394.394 0 0 0-.394-.394H1.711A1.711 1.711 0 0 0 0 89.986v5.956a.394.394 0 0 0 .394.395z" data-name="Path 597" style="fill:#41479b"/>
        <g id="prefix__Group_945" data-name="Group 945" transform="translate(.636 89.154)">
            <path id="prefix__Path_598" d="M14.723 107.993l.087.262h.276a.037.037 0 0 1 .022.067l-.222.164.083.263a.037.037 0 0 1-.057.041l-.224-.16-.224.16a.037.037 0 0 1-.057-.041l.083-.263-.222-.164a.037.037 0 0 1 .022-.067h.276l.087-.262a.037.037 0 0 1 .07 0z" class="prefix__cls-1" data-name="Path 598" transform="translate(-14.253 -107.968)"/>
            <path id="prefix__Path_599" d="M14.723 138.648l.087.262h.276a.037.037 0 0 1 .022.067l-.222.164.083.263a.037.037 0 0 1-.057.041l-.224-.16-.224.16a.037.037 0 0 1-.057-.041l.083-.263-.222-.164a.037.037 0 0 1 .022-.067h.276l.087-.262a.037.037 0 0 1 .07 0z" class="prefix__cls-1" data-name="Path 599" transform="translate(-14.253 -137.254)"/>
            <path id="prefix__Path_600" d="M14.723 169.3l.087.262h.276a.037.037 0 0 1 .022.067l-.222.164.083.263a.037.037 0 0 1-.057.041l-.224-.16-.224.16a.037.037 0 0 1-.057-.041l.083-.263-.222-.164a.037.037 0 0 1 .022-.067h.276l.087-.262a.037.037 0 0 1 .07 0z" class="prefix__cls-1" data-name="Path 600" transform="translate(-14.253 -166.541)"/>
            <path id="prefix__Path_601" d="M14.723 199.956l.087.262h.276a.037.037 0 0 1 .022.067l-.222.164.083.263a.037.037 0 0 1-.057.041l-.224-.16-.224.16a.037.037 0 0 1-.057-.041l.083-.263-.222-.164a.037.037 0 0 1 .022-.067h.276l.087-.262a.037.037 0 0 1 .07 0z" class="prefix__cls-1" data-name="Path 601" transform="translate(-14.253 -195.826)"/>
            <path id="prefix__Path_602" d="M14.723 230.611l.087.262h.276a.037.037 0 0 1 .022.067l-.222.164.083.263a.037.037 0 0 1-.057.041l-.224-.16-.224.16a.037.037 0 0 1-.057-.041l.083-.263-.222-.164a.037.037 0 0 1 .022-.067h.276l.087-.262a.037.037 0 0 1 .07 0z" class="prefix__cls-1" data-name="Path 602" transform="translate(-14.253 -225.113)"/>
            <path id="prefix__Path_603" d="M38.516 123.023l.087.262h.276a.037.037 0 0 1 .022.067l-.222.164.083.263a.037.037 0 0 1-.057.041l-.224-.16-.224.16a.037.037 0 0 1-.057-.041l.083-.263-.222-.164a.037.037 0 0 1 .022-.067h.276l.087-.262a.037.037 0 0 1 .07 0z" class="prefix__cls-1" data-name="Path 603" transform="translate(-36.984 -122.327)"/>
            <path id="prefix__Path_604" d="M38.516 153.677l.087.262h.276a.037.037 0 0 1 .022.067l-.222.164.083.263a.037.037 0 0 1-.057.041l-.224-.16-.224.16a.037.037 0 0 1-.057-.041l.083-.263-.222-.164a.037.037 0 0 1 .022-.067h.276l.087-.262a.037.037 0 0 1 .07 0z" class="prefix__cls-1" data-name="Path 604" transform="translate(-36.984 -151.613)"/>
            <path id="prefix__Path_605" d="M38.516 184.331l.087.262h.276a.037.037 0 0 1 .022.067l-.222.164.083.263a.037.037 0 0 1-.057.041l-.224-.16-.224.16a.037.037 0 0 1-.057-.041l.083-.263-.222-.164a.037.037 0 0 1 .022-.067h.276l.087-.262a.037.037 0 0 1 .07 0z" class="prefix__cls-1" data-name="Path 605" transform="translate(-36.984 -180.899)"/>
            <path id="prefix__Path_606" d="M38.516 214.986l.087.262h.276a.037.037 0 0 1 .022.067l-.222.164.083.263a.037.037 0 0 1-.057.041l-.224-.16-.224.16a.037.037 0 0 1-.057-.041l.083-.263-.222-.164a.037.037 0 0 1 .022-.067h.276l.087-.262a.037.037 0 0 1 .07 0z" class="prefix__cls-1" data-name="Path 606" transform="translate(-36.984 -210.185)"/>
            <path id="prefix__Path_607" d="M62.309 107.993l.087.262h.276a.037.037 0 0 1 .022.067l-.222.164.083.263a.037.037 0 0 1-.057.041l-.224-.16-.224.16a.037.037 0 0 1-.057-.041l.083-.263-.222-.164a.037.037 0 0 1 .022-.067h.276l.087-.262a.037.037 0 0 1 .07 0z" class="prefix__cls-1" data-name="Path 607" transform="translate(-59.715 -107.968)"/>
            <path id="prefix__Path_608" d="M62.309 138.648l.087.262h.276a.037.037 0 0 1 .022.067l-.222.164.083.263a.037.037 0 0 1-.057.041l-.224-.16-.224.16a.037.037 0 0 1-.057-.041l.083-.263-.222-.164a.037.037 0 0 1 .022-.067h.276l.087-.262a.037.037 0 0 1 .07 0z" class="prefix__cls-1" data-name="Path 608" transform="translate(-59.715 -137.254)"/>
            <path id="prefix__Path_609" d="M62.309 169.3l.087.262h.276a.037.037 0 0 1 .022.067l-.222.164.083.263a.037.037 0 0 1-.057.041l-.224-.16-.224.16a.037.037 0 0 1-.057-.041l.083-.263-.222-.164a.037.037 0 0 1 .022-.067h.276l.087-.262a.037.037 0 0 1 .07 0z" class="prefix__cls-1" data-name="Path 609" transform="translate(-59.715 -166.54)"/>
            <path id="prefix__Path_610" d="M62.309 199.956l.087.262h.276a.037.037 0 0 1 .022.067l-.222.164.083.263a.037.037 0 0 1-.057.041l-.224-.16-.224.16a.037.037 0 0 1-.057-.041l.083-.263-.222-.164a.037.037 0 0 1 .022-.067h.276l.087-.262a.037.037 0 0 1 .07 0z" class="prefix__cls-1" data-name="Path 610" transform="translate(-59.715 -195.826)"/>
            <path id="prefix__Path_611" d="M62.309 230.611l.087.262h.276a.037.037 0 0 1 .022.067l-.222.164.083.263a.037.037 0 0 1-.057.041l-.224-.16-.224.16a.037.037 0 0 1-.057-.041l.083-.263-.222-.164a.037.037 0 0 1 .022-.067h.276l.087-.262a.037.037 0 0 1 .07 0z" class="prefix__cls-1" data-name="Path 611" transform="translate(-59.715 -225.113)"/>
            <path id="prefix__Path_612" d="M86.1 123.023l.087.262h.276a.037.037 0 0 1 .022.067l-.222.164.083.263a.037.037 0 0 1-.057.041l-.224-.16-.224.16a.037.037 0 0 1-.057-.041l.083-.263-.222-.164a.037.037 0 0 1 .022-.067h.276l.087-.262a.037.037 0 0 1 .07 0z" class="prefix__cls-1" data-name="Path 612" transform="translate(-82.447 -122.327)"/>
            <path id="prefix__Path_613" d="M86.1 153.677l.087.262h.276a.037.037 0 0 1 .022.067l-.222.164.083.263a.037.037 0 0 1-.057.041l-.224-.16-.224.16a.037.037 0 0 1-.057-.041l.083-.263-.222-.164a.037.037 0 0 1 .022-.067h.276l.087-.262a.037.037 0 0 1 .07 0z" class="prefix__cls-1" data-name="Path 613" transform="translate(-82.447 -151.613)"/>
            <path id="prefix__Path_614" d="M86.1 184.331l.087.262h.276a.037.037 0 0 1 .022.067l-.222.164.083.263a.037.037 0 0 1-.057.041l-.224-.16-.224.16a.037.037 0 0 1-.057-.041l.083-.263-.222-.164a.037.037 0 0 1 .022-.067h.276l.087-.262a.037.037 0 0 1 .07 0z" class="prefix__cls-1" data-name="Path 614" transform="translate(-82.447 -180.899)"/>
            <path id="prefix__Path_615" d="M86.1 214.986l.087.262h.276a.037.037 0 0 1 .022.067l-.222.164.083.263a.037.037 0 0 1-.057.041l-.224-.16-.224.16a.037.037 0 0 1-.057-.041l.083-.263-.222-.164a.037.037 0 0 1 .022-.067h.276l.087-.262a.037.037 0 0 1 .07 0z" class="prefix__cls-1" data-name="Path 615" transform="translate(-82.447 -210.185)"/>
            <path id="prefix__Path_616" d="M109.895 107.993l.087.262h.276a.037.037 0 0 1 .022.067l-.222.164.083.263a.037.037 0 0 1-.057.041l-.224-.16-.224.16a.037.037 0 0 1-.057-.041l.083-.263-.222-.164a.037.037 0 0 1 .022-.067h.276l.087-.262a.037.037 0 0 1 .07 0z" class="prefix__cls-1" data-name="Path 616" transform="translate(-105.177 -107.968)"/>
            <path id="prefix__Path_617" d="M109.895 138.648l.087.262h.276a.037.037 0 0 1 .022.067l-.222.164.083.263a.037.037 0 0 1-.057.041l-.224-.16-.224.16a.037.037 0 0 1-.057-.041l.083-.263-.222-.164a.037.037 0 0 1 .022-.067h.276l.087-.262a.037.037 0 0 1 .07 0z" class="prefix__cls-1" data-name="Path 617" transform="translate(-105.177 -137.254)"/>
            <path id="prefix__Path_618" d="M109.895 169.3l.087.262h.276a.037.037 0 0 1 .022.067l-.222.164.083.263a.037.037 0 0 1-.057.041l-.224-.16-.224.16a.037.037 0 0 1-.057-.041l.083-.263-.222-.164a.037.037 0 0 1 .022-.067h.276l.087-.262a.037.037 0 0 1 .07 0z" class="prefix__cls-1" data-name="Path 618" transform="translate(-105.177 -166.54)"/>
            <path id="prefix__Path_619" d="M109.895 199.956l.087.262h.276a.037.037 0 0 1 .022.067l-.222.164.083.263a.037.037 0 0 1-.057.041l-.224-.16-.224.16a.037.037 0 0 1-.057-.041l.083-.263-.222-.164a.037.037 0 0 1 .022-.067h.276l.087-.262a.037.037 0 0 1 .07 0z" class="prefix__cls-1" data-name="Path 619" transform="translate(-105.177 -195.826)"/>
            <path id="prefix__Path_620" d="M109.895 230.611l.087.262h.276a.037.037 0 0 1 .022.067l-.222.164.083.263a.037.037 0 0 1-.057.041l-.224-.16-.224.16a.037.037 0 0 1-.057-.041l.083-.263-.222-.164a.037.037 0 0 1 .022-.067h.276l.087-.262a.037.037 0 0 1 .07 0z" class="prefix__cls-1" data-name="Path 620" transform="translate(-105.177 -225.113)"/>
            <path id="prefix__Path_621" d="M133.689 123.023l.087.262h.276a.037.037 0 0 1 .022.067l-.222.164.083.263a.037.037 0 0 1-.057.041l-.224-.16-.224.16a.037.037 0 0 1-.057-.041l.083-.263-.222-.164a.037.037 0 0 1 .022-.067h.276l.087-.262a.037.037 0 0 1 .07 0z" class="prefix__cls-1" data-name="Path 621" transform="translate(-127.909 -122.327)"/>
            <path id="prefix__Path_622" d="M133.689 153.677l.087.262h.276a.037.037 0 0 1 .022.067l-.222.164.083.263a.037.037 0 0 1-.057.041l-.224-.16-.224.16a.037.037 0 0 1-.057-.041l.083-.263-.222-.164a.037.037 0 0 1 .022-.067h.276l.087-.262a.037.037 0 0 1 .07 0z" class="prefix__cls-1" data-name="Path 622" transform="translate(-127.909 -151.613)"/>
            <path id="prefix__Path_623" d="M133.689 184.331l.087.262h.276a.037.037 0 0 1 .022.067l-.222.164.083.263a.037.037 0 0 1-.057.041l-.224-.16-.224.16a.037.037 0 0 1-.057-.041l.083-.263-.222-.164a.037.037 0 0 1 .022-.067h.276l.087-.262a.037.037 0 0 1 .07 0z" class="prefix__cls-1" data-name="Path 623" transform="translate(-127.909 -180.899)"/>
            <path id="prefix__Path_624" d="M133.689 214.986l.087.262h.276a.037.037 0 0 1 .022.067l-.222.164.083.263a.037.037 0 0 1-.057.041l-.224-.16-.224.16a.037.037 0 0 1-.057-.041l.083-.263-.222-.164a.037.037 0 0 1 .022-.067h.276l.087-.262a.037.037 0 0 1 .07 0z" class="prefix__cls-1" data-name="Path 624" transform="translate(-127.909 -210.185)"/>
            <path id="prefix__Path_625" d="M157.483 107.993l.087.262h.276a.037.037 0 0 1 .022.067l-.222.164.083.263a.037.037 0 0 1-.057.041l-.224-.16-.224.16a.037.037 0 0 1-.057-.041l.083-.263-.222-.164a.037.037 0 0 1 .022-.067h.276l.087-.262a.037.037 0 0 1 .07 0z" class="prefix__cls-1" data-name="Path 625" transform="translate(-150.641 -107.968)"/>
            <path id="prefix__Path_626" d="M157.483 138.648l.087.262h.276a.037.037 0 0 1 .022.067l-.222.164.083.263a.037.037 0 0 1-.057.041l-.224-.16-.224.16a.037.037 0 0 1-.057-.041l.083-.263-.222-.164a.037.037 0 0 1 .022-.067h.276l.087-.262a.037.037 0 0 1 .07 0z" class="prefix__cls-1" data-name="Path 626" transform="translate(-150.641 -137.254)"/>
            <path id="prefix__Path_627" d="M157.483 169.3l.087.262h.276a.037.037 0 0 1 .022.067l-.222.164.083.263a.037.037 0 0 1-.057.041l-.224-.16-.224.16a.037.037 0 0 1-.057-.041l.083-.263-.222-.164a.037.037 0 0 1 .022-.067h.276l.087-.262a.037.037 0 0 1 .07 0z" class="prefix__cls-1" data-name="Path 627" transform="translate(-150.641 -166.54)"/>
            <path id="prefix__Path_628" d="M157.483 199.956l.087.262h.276a.037.037 0 0 1 .022.067l-.222.164.083.263a.037.037 0 0 1-.057.041l-.224-.16-.224.16a.037.037 0 0 1-.057-.041l.083-.263-.222-.164a.037.037 0 0 1 .022-.067h.276l.087-.262a.037.037 0 0 1 .07 0z" class="prefix__cls-1" data-name="Path 628" transform="translate(-150.641 -195.826)"/>
            <path id="prefix__Path_629" d="M157.483 230.611l.087.262h.276a.037.037 0 0 1 .022.067l-.222.164.083.263a.037.037 0 0 1-.057.041l-.224-.16-.224.16a.037.037 0 0 1-.057-.041l.083-.263-.222-.164a.037.037 0 0 1 .022-.067h.276l.087-.262a.037.037 0 0 1 .07 0z" class="prefix__cls-1" data-name="Path 629" transform="translate(-150.641 -225.113)"/>
            <path id="prefix__Path_630" d="M181.276 123.023l.087.262h.276a.037.037 0 0 1 .022.067l-.222.164.083.263a.037.037 0 0 1-.057.041l-.224-.16-.224.16a.037.037 0 0 1-.057-.041l.083-.263-.222-.164a.037.037 0 0 1 .022-.067h.276l.087-.262a.037.037 0 0 1 .07 0z" class="prefix__cls-1" data-name="Path 630" transform="translate(-173.372 -122.327)"/>
            <path id="prefix__Path_631" d="M181.276 153.677l.087.262h.276a.037.037 0 0 1 .022.067l-.222.164.083.263a.037.037 0 0 1-.057.041l-.224-.16-.224.16a.037.037 0 0 1-.057-.041l.083-.263-.222-.164a.037.037 0 0 1 .022-.067h.276l.087-.262a.037.037 0 0 1 .07 0z" class="prefix__cls-1" data-name="Path 631" transform="translate(-173.372 -151.613)"/>
            <path id="prefix__Path_632" d="M181.276 184.331l.087.262h.276a.037.037 0 0 1 .022.067l-.222.164.083.263a.037.037 0 0 1-.057.041l-.224-.16-.224.16a.037.037 0 0 1-.057-.041l.083-.263-.222-.164a.037.037 0 0 1 .022-.067h.276l.087-.262a.037.037 0 0 1 .07 0z" class="prefix__cls-1" data-name="Path 632" transform="translate(-173.372 -180.899)"/>
            <path id="prefix__Path_633" d="M181.276 214.986l.087.262h.276a.037.037 0 0 1 .022.067l-.222.164.083.263a.037.037 0 0 1-.057.041l-.224-.16-.224.16a.037.037 0 0 1-.057-.041l.083-.263-.222-.164a.037.037 0 0 1 .022-.067h.276l.087-.262a.037.037 0 0 1 .07 0z" class="prefix__cls-1" data-name="Path 633" transform="translate(-173.372 -210.185)"/>
            <path id="prefix__Path_634" d="M205.07 107.993l.087.262h.276a.037.037 0 0 1 .022.067l-.222.164.083.263a.037.037 0 0 1-.057.041l-.224-.16-.224.16a.037.037 0 0 1-.057-.041l.083-.263-.222-.164a.037.037 0 0 1 .022-.067h.276l.087-.262a.037.037 0 0 1 .07 0z" class="prefix__cls-1" data-name="Path 634" transform="translate(-196.104 -107.968)"/>
            <path id="prefix__Path_635" d="M205.07 138.648l.087.262h.276a.037.037 0 0 1 .022.067l-.222.164.083.263a.037.037 0 0 1-.057.041l-.224-.16-.224.16a.037.037 0 0 1-.057-.041l.083-.263-.222-.164a.037.037 0 0 1 .022-.067h.276l.087-.262a.037.037 0 0 1 .07 0z" class="prefix__cls-1" data-name="Path 635" transform="translate(-196.104 -137.254)"/>
            <path id="prefix__Path_636" d="M205.07 169.3l.087.262h.276a.037.037 0 0 1 .022.067l-.222.164.083.263a.037.037 0 0 1-.057.041l-.224-.16-.224.16a.037.037 0 0 1-.057-.041l.083-.263-.222-.164a.037.037 0 0 1 .022-.067h.276l.087-.262a.037.037 0 0 1 .07 0z" class="prefix__cls-1" data-name="Path 636" transform="translate(-196.104 -166.54)"/>
            <path id="prefix__Path_637" d="M205.07 199.956l.087.262h.276a.037.037 0 0 1 .022.067l-.222.164.083.263a.037.037 0 0 1-.057.041l-.224-.16-.224.16a.037.037 0 0 1-.057-.041l.083-.263-.222-.164a.037.037 0 0 1 .022-.067h.276l.087-.262a.037.037 0 0 1 .07 0z" class="prefix__cls-1" data-name="Path 637" transform="translate(-196.104 -195.826)"/>
            <path id="prefix__Path_638" d="M205.07 230.611l.087.262h.276a.037.037 0 0 1 .022.067l-.222.164.083.263a.037.037 0 0 1-.057.041l-.224-.16-.224.16a.037.037 0 0 1-.057-.041l.083-.263-.222-.164a.037.037 0 0 1 .022-.067h.276l.087-.262a.037.037 0 0 1 .07 0z" class="prefix__cls-1" data-name="Path 638" transform="translate(-196.104 -225.113)"/>
        </g>
    </g>
</svg>
