<svg xmlns="http://www.w3.org/2000/svg" width="1440" height="74.999" viewBox="0 0 1440 74.999">
  <path id="Union_1" data-name="Union 1" d="M-6351.095-3379.526c-23.84,0-22.708,10.525-49.272,10.525s-28.083-10.525-56.977-10.525-30.651,10.525-58.6,10.525-26.232-10.525-53.185-10.525S-6595.055-3369-6623.75-3369s-31.063-10.525-60.155-10.525S-6710.334-3369-6740.121-3369s-33.45-10.525-62.924-10.525S-6831.5-3369-6858.014-3369s-23.89-10.525-51.087-10.525S-6937.486-3369-6966.8-3369s-31.473-10.525-59.556-10.525S-7050.543-3369-7079.128-3369s-32.05-10.525-61.566-10.525S-7169.852-3369-7197.187-3369s-26.871-10.525-52.849-10.525S-7275.146-3369-7301.1-3369s-25.434-10.525-52.733-10.525S-7381.873-3369-7410.291-3369s-29.169-10.525-57.21-10.525S-7495.02-3369-7522.448-3369s-26.819-10.525-54.769-10.525S-7606.35-3369-7634.242-3369s-26.856-10.525-54.547-10.525S-7745-3369-7745-3369v-75h1440v75S-6327.253-3379.526-6351.095-3379.526Z" transform="translate(7745 3444)" fill="#fff"/>
</svg>
