<svg xmlns="http://www.w3.org/2000/svg" width="14.506" height="19.342" viewBox="0 0 14.506 19.342">
    <g id="prefix__lock" transform="translate(-64)">
        <g id="prefix__Group_613" data-name="Group 613" transform="translate(64)">
            <path id="prefix__Path_397" d="M78.1 7.253h-1.206V5.641a5.641 5.641 0 0 0-11.283 0v1.612H64.4a.4.4 0 0 0-.4.4V17.73a1.613 1.613 0 0 0 1.612 1.612h11.282a1.613 1.613 0 0 0 1.612-1.612V7.656a.4.4 0 0 0-.406-.403zm-5.64 8.418a.4.4 0 0 1-.4.447h-1.613a.4.4 0 0 1-.4-.447l.254-2.286a1.594 1.594 0 0 1-.66-1.3 1.612 1.612 0 1 1 3.224 0 1.594 1.594 0 0 1-.66 1.3zm2.017-8.417H68.03V5.641a3.224 3.224 0 1 1 6.447 0z" data-name="Path 397" transform="translate(-64)" style="fill:#212a53"/>
        </g>
    </g>
</svg>
