<svg xmlns="http://www.w3.org/2000/svg" width="15.673" height="20.897" viewBox="0 0 15.673 20.897">
    <g id="prefix__lock_1_" data-name="lock (1)" transform="translate(-64)">
        <g id="prefix__Group_629" data-name="Group 629" transform="translate(64)">
            <path id="prefix__Path_402" d="M79.238 7.837h-1.306V6.1a6.1 6.1 0 1 0-12.19 0v1.737h-1.307a.435.435 0 0 0-.435.435v10.884a1.743 1.743 0 0 0 1.741 1.744h12.19a1.743 1.743 0 0 0 1.741-1.741V8.272a.435.435 0 0 0-.434-.435zm-6.1 9.095a.435.435 0 0 1-.433.483h-1.739a.435.435 0 0 1-.433-.483l.275-2.47a1.722 1.722 0 0 1-.713-1.4 1.741 1.741 0 0 1 3.483 0 1.722 1.722 0 0 1-.713 1.4zm2.179-9.095h-6.963V6.1a3.483 3.483 0 0 1 6.966 0z" data-name="Path 402" transform="translate(-64)" style="fill:#84bf41"/>
        </g>
    </g>
</svg>
