<svg id="Group_220" data-name="Group 220" xmlns="http://www.w3.org/2000/svg" width="134" height="47.668" viewBox="0 0 134 47.668">
  <path id="Fill-3" d="M23.731,16.579a5.421,5.421,0,0,1-4.473-6.094l.646-5.6a1.548,1.548,0,0,1,1.683-1.423,1.609,1.609,0,0,1,1.334,1.817l-.646,5.6A2.213,2.213,0,0,0,24.1,13.367a2.133,2.133,0,0,0,2.337-1.944l.646-5.6A1.548,1.548,0,0,1,28.768,4.4,1.609,1.609,0,0,1,30.1,6.216l-.646,5.6a5.226,5.226,0,0,1-5.725,4.761" transform="translate(46.043 14.037)" fill="#fff" fill-rule="evenodd"/>
  <path id="Fill-5" d="M82.517,12.175a3,3,0,0,1-3.55-2.452,3.191,3.191,0,0,1,2.305-3.775A3,3,0,0,1,84.822,8.4a3.192,3.192,0,0,1-2.305,3.775M80.64,2.785a5.868,5.868,0,0,0-2.761,1.494l-.6-3.014A1.541,1.541,0,0,0,75.465.035a1.5,1.5,0,0,0-1.153,1.824S75.862,9.74,75.993,10.4a6.058,6.058,0,0,0,7.156,4.942A6.437,6.437,0,0,0,87.8,7.727,6.058,6.058,0,0,0,80.64,2.785" transform="translate(20.147 15.659)" fill="#fff" fill-rule="evenodd"/>
  <path id="Fill-7" d="M8.559,14.2l-.534.09A1.541,1.541,0,0,1,6.278,12.93L5.557,8.071l2.228-.377A1.368,1.368,0,0,0,8.86,6.114,1.3,1.3,0,0,0,7.381,4.967l-2.228.377-.346-2.33a1.537,1.537,0,0,0-1.725-1.36A1.618,1.618,0,0,0,1.813,3.52l.346,2.33-1.068.181A1.368,1.368,0,0,0,.016,7.61,1.3,1.3,0,0,0,1.495,8.758l1.068-.181.721,4.859A4.611,4.611,0,0,0,8.5,17.484l.534-.09a1.618,1.618,0,0,0,1.27-1.867A1.534,1.534,0,0,0,8.559,14.2" transform="translate(55.083 14.891)" fill="#fff" fill-rule="evenodd"/>
  <path id="Fill-9" d="M102.821,16.626a1.621,1.621,0,0,1-1.416-1.769l1.1-13.37a1.579,1.579,0,0,1,1.683-1.48,1.617,1.617,0,0,1,1.393,1.767l-1.1,13.37a1.575,1.575,0,0,1-1.66,1.482" transform="translate(7.389 15.659)" fill="#fff" fill-rule="evenodd"/>
  <path id="Fill-11" d="M118.885,9.467a2.826,2.826,0,0,0-3.376-1.456A3.094,3.094,0,0,0,113.125,11Zm-5.282,3.78c1.136,2.154,4.353,2.2,6.063.278a1.26,1.26,0,0,1,1.943-.1,1.532,1.532,0,0,1,.142,2.056,6.41,6.41,0,0,1-10.017.048c-2.758-3.481-1.1-9.04,3.155-10.168a5.715,5.715,0,0,1,5.548,1.6c.937.992,1.7,2.288,1.421,3.371-.309.857-1.1,1.015-1.944,1.24Z" transform="translate(3.165 13.226)" fill="#fff" fill-rule="evenodd"/>
  <path id="Fill-13" d="M139.692,10.836a2.024,2.024,0,0,0-1.575-.13.727.727,0,0,0-.184,1.19,2.284,2.284,0,0,0,.942.477A4.035,4.035,0,0,1,141.5,15.7a4.282,4.282,0,0,1-1.8,4.064,4.519,4.519,0,0,1-4.137.268,3.242,3.242,0,0,1-1.551-1.164,1.806,1.806,0,0,1,.145-1.878c.644-.851,1.583-.552,2.413-.14.538.273,1.465.47,1.779-.2.311-.642-.122-1.2-1.184-1.672a4.113,4.113,0,0,1-2.418-3.528c-.061-2.765,2.992-4.54,5.683-3.379a2.828,2.828,0,0,1,1.115.829,1.337,1.337,0,0,1,.047,1.65c-.51.717-1.244.495-1.908.282" transform="translate(-7.861 12.031)" fill="#fff" fill-rule="evenodd"/>
  <path id="Fill-15" d="M53.643,7.533a4.988,4.988,0,0,0-3.6,1.583,4.908,4.908,0,0,0-3.6-1.583,5.325,5.325,0,0,0-5.129,5.478v5.6a1.52,1.52,0,1,0,3.035,0v-5.6a2.1,2.1,0,1,1,4.188,0v5.6a1.555,1.555,0,0,0,1.506,1.608,1.574,1.574,0,0,0,1.529-1.608v-5.6a2.088,2.088,0,1,1,4.164,0v5.6a1.52,1.52,0,1,0,3.035,0v-5.6a5.325,5.325,0,0,0-5.129-5.478" transform="translate(35.651 12.116)" fill="#fff" fill-rule="evenodd"/>
  <path id="Fill-1" d="M0,21.451a2.39,2.39,0,0,0,2.383,2.383H4.767A3.539,3.539,0,0,0,7.9,21.573l.876-2.628a3.539,3.539,0,0,1,3.137-2.261H14.3a2.39,2.39,0,0,1,2.383,2.383V35.751A2.39,2.39,0,0,1,14.3,38.134a2.39,2.39,0,0,0-2.383,2.383v4.767A2.39,2.39,0,0,0,14.3,47.668H33.368a2.39,2.39,0,0,0,2.383-2.383V40.518a2.39,2.39,0,0,0-2.383-2.383,2.39,2.39,0,0,1-2.383-2.383V19.067a2.39,2.39,0,0,1,2.383-2.383H45.285A2.39,2.39,0,0,0,47.668,14.3V2.383A2.39,2.39,0,0,0,45.285,0H42.9a3.539,3.539,0,0,0-3.137,2.261l-.876,2.628A3.539,3.539,0,0,1,35.751,7.15H2.383A2.39,2.39,0,0,0,0,9.534Z" fill="#fff" fill-rule="evenodd"/>
</svg>
