<svg xmlns="http://www.w3.org/2000/svg" xmlns:xlink="http://www.w3.org/1999/xlink" width="152" height="49" viewBox="0 0 152 49">
    <defs>
        <path id="a" d="M0 .688h47.213v47.154H0z"/>
    </defs>
    <g fill="none" fill-rule="evenodd">
        <path fill="#000" d="M74.196 31.86c-3.358-.41-5.764-3.486-5.351-6.839l.773-6.287c.124-1.005 1.035-1.716 2.014-1.596a1.826 1.826 0 0 1 1.595 2.039l-.773 6.287a2.51 2.51 0 0 0 2.185 2.792 2.513 2.513 0 0 0 2.795-2.181l.773-6.287c.124-1.006 1.035-1.717 2.015-1.597a1.826 1.826 0 0 1 1.595 2.04l-.773 6.287c-.413 3.352-3.491 5.755-6.848 5.343M113.57 28.76a3.585 3.585 0 0 1-4.247-2.754 3.58 3.58 0 0 1 7.004-1.487 3.58 3.58 0 0 1-2.757 4.24m-2.245-10.546a7.164 7.164 0 0 0-3.303 1.678l-.72-3.385c-.206-.965-1.203-1.588-2.168-1.382-.965.204-1.597 1.03-1.38 2.048 0 0 1.855 8.853 2.012 9.589.827 3.883 4.672 6.377 8.56 5.551 3.887-.825 6.385-4.666 5.558-8.547-.826-3.884-4.67-6.378-8.56-5.552M66.922 30.19l-.64.101a1.828 1.828 0 0 1-2.097-1.521l-.864-5.45 2.673-.422a1.545 1.545 0 0 0 1.29-1.772 1.544 1.544 0 0 0-1.774-1.287l-2.673.422-.415-2.613c-.158-1.002-1.095-1.68-2.069-1.526a1.826 1.826 0 0 0-1.522 2.093l.414 2.614-1.281.203a1.544 1.544 0 0 0-1.289 1.771 1.545 1.545 0 0 0 1.774 1.287l1.28-.202.866 5.451a5.473 5.473 0 0 0 6.256 4.54l.64-.102a1.826 1.826 0 0 0 1.523-2.094c-.154-.972-1.09-1.652-2.092-1.493M122.632 33.742c-1.01-.088-1.782-.975-1.694-1.984l1.314-15.005c.089-1.01 1.003-1.75 2.013-1.662a1.846 1.846 0 0 1 1.666 1.983l-1.315 15.005a1.846 1.846 0 0 1-1.984 1.663M136.808 22.991c-.662-1.373-2.343-2.056-4.04-1.634-1.722.429-2.886 1.82-2.852 3.35l6.892-1.716zm-6.32 4.243c1.36 2.419 5.208 2.476 7.254.312.602-.73 1.642-.757 2.324-.115.677.616.765 1.667.17 2.309-3.305 3.637-9.088 3.627-11.984.053-3.3-3.907-1.313-10.147 3.774-11.413 2.379-.593 4.82.105 6.637 1.799 1.12 1.113 2.036 2.568 1.7 3.784-.37.963-1.314 1.14-2.325 1.392l-7.55 1.88zM148.487 23.214c-.657-.194-1.224-.434-1.885-.146a.79.79 0 0 0-.22 1.334c.413.334.689.396 1.127.536 1.69.576 2.91 1.973 3.148 3.733.235 1.788-.615 3.612-2.15 4.559-1.42.903-3.348.894-4.95.3-.653-.25-1.478-.691-1.858-1.306-.378-.613-.286-1.596.174-2.106.771-.955 1.895-.619 2.888-.157.644.307 1.753.528 2.129-.22.373-.721-.146-1.35-1.417-1.876-1.487-.607-2.857-2.166-2.894-3.957-.072-3.1 3.58-5.092 6.8-3.79.486.202 1.015.522 1.334.929.421.505.538 1.172.057 1.852-.61.804-1.488.554-2.283.315M97.644 19.532a6.17 6.17 0 0 0-4.313 1.774 6.07 6.07 0 0 0-4.313-1.774c-3.382 0-6.144 2.758-6.144 6.137v6.279c0 .985.817 1.8 1.804 1.8 1.014 0 1.832-.815 1.832-1.8v-6.28a2.513 2.513 0 0 1 2.508-2.505 2.512 2.512 0 0 1 2.51 2.506v6.279c0 .985.789 1.8 1.803 1.8 1.015 0 1.833-.815 1.833-1.8v-6.28c0-1.379 1.099-2.505 2.48-2.505a2.512 2.512 0 0 1 2.51 2.506v6.279c0 .985.817 1.8 1.832 1.8.986 0 1.803-.815 1.803-1.8v-6.28c0-3.378-2.762-6.136-6.145-6.136"/>
        <g transform="translate(0 .25)">
            <mask id="b" fill="#fff">
                <use xlink:href="#a"/>
            </mask>
            <path fill="#8CC63F" d="M0 21.907a2.366 2.366 0 0 0 2.361 2.358h2.36c1.298 0 2.697-1.007 3.107-2.237l.868-2.6c.41-1.23 1.81-2.236 3.107-2.236h2.36a2.366 2.366 0 0 1 2.362 2.358v16.503a2.367 2.367 0 0 1-2.361 2.359 2.366 2.366 0 0 0-2.36 2.357v4.716a2.366 2.366 0 0 0 2.36 2.357h18.885a2.367 2.367 0 0 0 2.362-2.357v-4.716a2.367 2.367 0 0 0-2.362-2.357 2.366 2.366 0 0 1-2.36-2.359V19.55a2.365 2.365 0 0 1 2.36-2.358h11.804a2.366 2.366 0 0 0 2.36-2.358V3.046a2.366 2.366 0 0 0-2.36-2.358h-2.36c-1.3 0-2.697 1.006-3.108 2.237l-.867 2.6c-.412 1.23-1.81 2.236-3.107 2.236H2.36A2.366 2.366 0 0 0 0 10.119v11.788z" mask="url(#b)"/>
        </g>
    </g>
</svg>
