<svg xmlns="http://www.w3.org/2000/svg" width="27.234" height="20" viewBox="0 0 27.234 20">
    <defs>
        <style>
            .prefix__cls-1{fill:#84bf41}
        </style>
    </defs>
    <g id="prefix__pay" transform="translate(0 -68)">
        <g id="prefix__Group_626" data-name="Group 626" transform="translate(0 68)">
            <g id="prefix__Group_625" data-name="Group 625">
                <path id="prefix__Path_399" d="M24.043 68H3.191A3.2 3.2 0 0 0 0 71.191v13.618A3.2 3.2 0 0 0 3.191 88h20.852a3.2 3.2 0 0 0 3.191-3.191V71.191A3.2 3.2 0 0 0 24.043 68zm1.064 16.809a1.065 1.065 0 0 1-1.064 1.064H3.191a1.065 1.065 0 0 1-1.064-1.064v-9.043h22.979zm0-12.234H2.128v-1.384a1.065 1.065 0 0 1 1.064-1.064h20.851a1.065 1.065 0 0 1 1.064 1.064z" class="prefix__cls-1" data-name="Path 399" transform="translate(0 -68)"/>
            </g>
        </g>
        <g id="prefix__Group_628" data-name="Group 628" transform="translate(4 77.45)">
            <g id="prefix__Group_627" data-name="Group 627">
                <path id="prefix__Rectangle_126" d="M0 0H16V2H0z" class="prefix__cls-1" data-name="Rectangle 126"/>
            </g>
        </g>
    </g>
</svg>
