<svg xmlns="http://www.w3.org/2000/svg" width="46.584" height="58.32" viewBox="0 0 46.584 58.32">
    <defs>
        <style>
            .prefix__cls-1{fill:#f0c419}.prefix__cls-2{fill:#894b9d}.prefix__cls-3{fill:#d25627}.prefix__cls-4{fill:#c03a2b}
        </style>
    </defs>
    <g id="prefix__top" transform="rotate(-45 32.55 22.55)">
        <g id="prefix__Group_466" data-name="Group 466" transform="translate(.711 8.356)">
            <path id="prefix__Path_297" d="M40.567 363.812l-.043.043A5.65 5.65 0 0 1 34.411 365a6.474 6.474 0 0 1-3.663-3.664 5.649 5.649 0 0 1 1.141-6.112l.043-.043a37.74 37.74 0 0 0 8.635 8.634z" class="prefix__cls-1" data-name="Path 297" transform="translate(-27.919 -334.887)"/>
            <path id="prefix__Path_298" d="M16.5 431.492c-.136.111-.271.234-.4.364-1.7 1.7-1.233 4.934-1.233 4.934s3.232.469 4.934-1.233c.13-.13.253-.266.364-.4a6.477 6.477 0 0 1-3.665-3.665z" class="prefix__cls-1" data-name="Path 298" transform="translate(-13.666 -405.046)"/>
            <path id="prefix__Path_299" d="M32.126 105.122c-1.363-1.363-3.022-1.912-3.7-1.233a8.718 8.718 0 0 1-1.092.931 9.9 9.9 0 0 1-1.789 1.036 11.237 11.237 0 0 1-1.937.679 14.79 14.79 0 0 1-2.016.352 16.625 16.625 0 0 1-1.826.1c-.068.006-.142.006-.216.006-.672-.006-1.344-.037-2.011-.1-.629-.062-1.265-.142-1.893-.253-.58-.086-1.153-.2-1.727-.333-.481-.111-.962-.222-1.437-.352q-1.591-.462-3.164-1.017a13.759 13.759 0 0 0-2.985-.765 7.336 7.336 0 0 0-1.1-.056 5.048 5.048 0 0 0-1.1.142 3.344 3.344 0 0 0-1.6.864c-1.135 1.135-1.283 3.1-.6 5.532l-.02.018c-2.381 2.381-1.086 7.746 2.819 13.217a37.759 37.759 0 0 0 8.634 8.634c5.47 3.9 10.836 5.2 13.217 2.819l.019-.019c2.436.684 4.4.537 5.532-.6a3.108 3.108 0 0 0 .672-1.017 4.352 4.352 0 0 0 .315-1.153c.253-1.807-.518-3.663-1.054-5.372a35.784 35.784 0 0 1-1.708-7.531 20.865 20.865 0 0 1-.086-2.331 11.989 11.989 0 0 1 3.1-8.5c.665-.675.116-2.334-1.247-3.698z" class="prefix__cls-1" data-name="Path 299" transform="translate(-.711 -103.598)"/>
        </g>
        <path id="prefix__Path_300" d="M41.272 140.644c-1.135 1.135-3.1 1.283-5.532.6-3.324-.919-7.524-3.38-11.718-6.969-1.036-.888-2.078-1.856-3.1-2.88s-1.992-2.066-2.88-3.1c-3.589-4.194-6.05-8.394-6.969-11.718-.684-2.436-.537-4.4.6-5.532a3.35 3.35 0 0 1 1.6-.864 5.064 5.064 0 0 1 1.1-.142c.265 3.867 4.582 10.762 11.169 17.349 6.236 6.236 12.754 10.435 16.714 11.089a4.325 4.325 0 0 1-.315 1.153 3.129 3.129 0 0 1-.669 1.014z" class="prefix__cls-2" data-name="Path 300" transform="translate(-9.146 -101.161)"/>
        <g id="prefix__Group_467" data-name="Group 467" transform="translate(.711 7.413)">
            <path id="prefix__Path_301" d="M26.6 215.753l-.019.019c-2.381 2.381-7.746 1.086-13.217-2.819a37.758 37.758 0 0 1-8.634-8.634c-3.9-5.47-5.2-10.836-2.818-13.217l.019-.019c.919 3.324 3.38 7.524 6.969 11.718.888 1.036 1.856 2.078 2.88 3.1s2.066 1.992 3.1 2.88c4.191 3.592 8.391 6.052 11.72 6.972z" class="prefix__cls-3" data-name="Path 301" transform="translate(-.712 -183.084)"/>
            <path id="prefix__Path_302" d="M19.8 435.557c-1.7 1.7-4.933 1.233-4.933 1.233s-.469-3.232 1.233-4.934c.13-.13.265-.253.4-.364a6.477 6.477 0 0 0 3.662 3.664 5.288 5.288 0 0 1-.362.401z" class="prefix__cls-3" data-name="Path 302" transform="translate(-13.668 -404.103)"/>
            <ellipse id="prefix__Ellipse_65" cx="1.744" cy="3.489" class="prefix__cls-3" data-name="Ellipse 65" rx="1.744" ry="3.489" transform="rotate(135 15.92 9.485)"/>
        </g>
        <g id="prefix__Group_468" data-name="Group 468" transform="translate(11.063 13.481)">
            <path id="prefix__Path_303" d="M129.771 168.571a.751.751 0 0 1-.506-.206.829.829 0 0 1-.15-.235.719.719 0 0 1-.057-.271 1.051 1.051 0 0 1 .014-.142.452.452 0 0 1 .043-.128.539.539 0 0 1 .064-.128 1.046 1.046 0 0 1 .085-.107.712.712 0 0 1 1.217.506.72.72 0 0 1-.057.271.829.829 0 0 1-.15.235.752.752 0 0 1-.503.205z" class="prefix__cls-4" data-name="Path 303" transform="translate(-129.059 -167.143)"/>
            <path id="prefix__Path_304" d="M155.215 209.436a.788.788 0 0 1-.278-.057.708.708 0 0 1 0-1.31.722.722 0 0 1 .776.15c.033.034.063.07.093.107a1.077 1.077 0 0 1 .064.128.825.825 0 0 1 .043.128 1.068 1.068 0 0 1 .014.142.963.963 0 0 1-.014.142.817.817 0 0 1-.043.128c-.021.043-.043.085-.064.121a.7.7 0 0 1-.093.114.686.686 0 0 1-.107.085.394.394 0 0 1-.121.064.456.456 0 0 1-.135.043.966.966 0 0 1-.135.015z" class="prefix__cls-4" data-name="Path 304" transform="translate(-152.446 -204.718)"/>
            <path id="prefix__Path_305" d="M180.713 250.21a.715.715 0 0 1-.278-.057.7.7 0 0 1-.228-.15.725.725 0 0 1-.214-.506.716.716 0 0 1 1.217-.505.746.746 0 0 1 .157.235.762.762 0 0 1 0 .541.842.842 0 0 1-.157.235.7.7 0 0 1-.228.15.734.734 0 0 1-.269.057z" class="prefix__cls-4" data-name="Path 305" transform="translate(-175.886 -242.203)"/>
            <path id="prefix__Path_306" d="M213.892 283.328a.7.7 0 0 1-.506-.206.536.536 0 0 1-.085-.107 1.084 1.084 0 0 1-.071-.121 1.238 1.238 0 0 1-.036-.135.481.481 0 0 1-.014-.142.432.432 0 0 1 .014-.135.742.742 0 0 1 .036-.135.663.663 0 0 1 .071-.121.3.3 0 0 1 .085-.107.6.6 0 0 1 .235-.157.713.713 0 0 1 .776.157.681.681 0 0 1 .085.107.4.4 0 0 1 .064.121.456.456 0 0 1 .043.135.682.682 0 0 1 0 .278.608.608 0 0 1-.043.135.481.481 0 0 1-.064.121l-.085.107a.844.844 0 0 1-.235.157.7.7 0 0 1-.27.048z" class="prefix__cls-4" data-name="Path 306" transform="translate(-206.395 -272.651)"/>
            <path id="prefix__Path_307" d="M247 316.466a.74.74 0 0 1-.506-.214.68.68 0 0 1-.085-.107.394.394 0 0 1-.064-.121.412.412 0 0 1-.043-.135.87.87 0 0 1-.014-.135.967.967 0 0 1 .014-.142.5.5 0 0 1 .043-.135.484.484 0 0 1 .064-.121l.085-.107a.842.842 0 0 1 .235-.157.726.726 0 0 1 .776.157 1.106 1.106 0 0 1 .085.107.481.481 0 0 1 .064.121.5.5 0 0 1 .043.135 1.066 1.066 0 0 1 .014.142.947.947 0 0 1-.014.135.452.452 0 0 1-.043.135.4.4 0 0 1-.064.121.427.427 0 0 1-.085.107.6.6 0 0 1-.235.157.719.719 0 0 1-.27.057z" class="prefix__cls-4" data-name="Path 307" transform="translate(-236.834 -303.112)"/>
            <path id="prefix__Path_308" d="M287.784 341.949a.717.717 0 0 1-.505-1.218.749.749 0 0 1 .648-.2l.128.043.128.064c.037.029.073.06.107.093a.716.716 0 0 1 .15.228.6.6 0 0 1 .057.278.718.718 0 0 1-.207.5c-.034.033-.07.063-.107.093l-.128.064-.128.043a1.039 1.039 0 0 1-.143.012z" class="prefix__cls-4" data-name="Path 308" transform="translate(-274.327 -326.537)"/>
            <path id="prefix__Path_309" d="M328.567 367.481a.435.435 0 0 1-.135-.014.81.81 0 0 1-.135-.036.66.66 0 0 1-.121-.071.7.7 0 0 1-.114-.085.722.722 0 0 1 0-1.011.738.738 0 0 1 .776-.149.659.659 0 0 1 .235.149.712.712 0 0 1-.505 1.218z" class="prefix__cls-4" data-name="Path 309" transform="translate(-311.821 -350.019)"/>
        </g>
        <path id="prefix__Path_310" d="M374.454 80.262a.712.712 0 0 1-.5-1.215l3.733-3.733a.712.712 0 0 1 1.007 1.007l-3.733 3.733a.71.71 0 0 1-.507.208z" data-name="Path 310" transform="translate(-342.945 -69.053)" style="fill:#2c2f38"/>
        <path id="prefix__Path_311" d="M422.638.885l-.194-.194c-1.2-1.2-3.393-.781-4.449.859l-2.383 3.7 2.467 2.467 3.7-2.383c1.64-1.056 2.062-3.245.859-4.449z" class="prefix__cls-2" data-name="Path 311" transform="translate(-381.437)"/>
    </g>
</svg>
