<svg xmlns="http://www.w3.org/2000/svg" width="94.9" height="94.8" viewBox="0 0 94.9 94.8">
    <defs>
        <style>
            .prefix__cls-1{fill:#f4d556}
        </style>
    </defs>
    <g id="prefix__noun_Star_2157383" transform="translate(-2.6 -2.6)">
        <g id="prefix__Group_383" data-name="Group 383">
            <g id="prefix__Group_382" data-name="Group 382">
                <path id="prefix__Path_191" d="M71.8 46.9a2.734 2.734 0 0 0-1.5-4.8l-11.1-.9a2.726 2.726 0 0 1-2.3-1.7l-4.3-10.3a2.719 2.719 0 0 0-5 0l-4.3 10.3a2.914 2.914 0 0 1-2.3 1.7l-11 1a2.712 2.712 0 0 0-1.5 4.8l8.4 7.2a2.783 2.783 0 0 1 .9 2.7l-2.6 10.8a2.665 2.665 0 0 0 4 2.9l9.5-5.8a2.8 2.8 0 0 1 2.8 0l9.5 5.8a2.652 2.652 0 0 0 4-2.9l-2.6-10.8a2.783 2.783 0 0 1 .9-2.7z" class="prefix__cls-1" data-name="Path 191"/>
                <path id="prefix__Path_192" d="M50.1 17.6a3.009 3.009 0 0 0 3-3v-9a3.009 3.009 0 0 0-3-3 3.076 3.076 0 0 0-3 3v9a3.076 3.076 0 0 0 3 3z" class="prefix__cls-1" data-name="Path 192"/>
                <path id="prefix__Path_193" d="M22.9 27a3.049 3.049 0 0 0 2.1.9 2.878 2.878 0 0 0 2.1-.9 3.018 3.018 0 0 0 0-4.3l-6.4-6.4a3.041 3.041 0 0 0-4.3 4.3z" class="prefix__cls-1" data-name="Path 193"/>
                <path id="prefix__Path_194" d="M17.6 49.9a3.009 3.009 0 0 0-3-3h-9a2.946 2.946 0 0 0-3 3 3.009 3.009 0 0 0 3 3h9a3.076 3.076 0 0 0 3-3z" class="prefix__cls-1" data-name="Path 194"/>
                <path id="prefix__Path_195" d="M22.7 72.8l-6.4 6.4a3.018 3.018 0 0 0 0 4.3 2.9 2.9 0 0 0 4.2 0l6.4-6.4a3.018 3.018 0 0 0 0-4.3 3.085 3.085 0 0 0-4.2 0z" class="prefix__cls-1" data-name="Path 195"/>
                <path id="prefix__Path_196" d="M49.9 82.4a3.009 3.009 0 0 0-3 3v9a3.009 3.009 0 0 0 3 3 3.076 3.076 0 0 0 3-3v-9a3.076 3.076 0 0 0-3-3z" class="prefix__cls-1" data-name="Path 196"/>
                <path id="prefix__Path_197" d="M77.1 73a3.041 3.041 0 0 0-4.3 4.3l6.4 6.4a2.9 2.9 0 0 0 4.2 0 3.018 3.018 0 0 0 0-4.3z" class="prefix__cls-1" data-name="Path 197"/>
                <path id="prefix__Path_198" d="M94.5 47.1h-9a3.009 3.009 0 0 0-3 3 3.076 3.076 0 0 0 3 3h9a3.009 3.009 0 0 0 3-3 3.076 3.076 0 0 0-3-3z" class="prefix__cls-1" data-name="Path 198"/>
                <path id="prefix__Path_199" d="M75.1 28a2.878 2.878 0 0 0 2.1-.9l6.4-6.4a3.041 3.041 0 1 0-4.3-4.3L73 22.9a3.018 3.018 0 0 0 0 4.3 2.931 2.931 0 0 0 2.1.8z" class="prefix__cls-1" data-name="Path 199"/>
            </g>
        </g>
    </g>
</svg>
