<svg xmlns="http://www.w3.org/2000/svg" width="303.102" height="306.923" viewBox="0 0 303.102 306.923">
  <g id="Polygon_5" data-name="Polygon 5" transform="translate(149.127 306.923) rotate(-130)" fill="none">
    <path d="M107.339,15.008a10,10,0,0,1,17.322,0L223.344,186a10,10,0,0,1-8.661,15H17.317a10,10,0,0,1-8.661-15Z" stroke="none"/>
    <path d="M 115.9999847412109 100.0306243896484 L 86.5848388671875 151.0000152587891 L 145.4151458740234 151.0000152587891 L 115.9999847412109 100.0306243896484 M 115.9999923706055 10.00611877441406 C 119.3684158325195 10.00611877441406 122.7368392944336 11.67329406738281 124.6611480712891 15.00762939453125 L 223.3441467285156 186.0015563964844 C 227.1916046142578 192.6681671142578 222.3802185058594 201.0000152587891 214.6829986572266 201.0000152587891 L 17.31698608398438 201.0000152587891 C 9.619766235351562 201.0000152587891 4.808380126953125 192.6681671142578 8.655838012695312 186.0015563964844 L 107.3388366699219 15.00762939453125 C 109.2631454467773 11.67329406738281 112.6315689086914 10.00611877441406 115.9999923706055 10.00611877441406 Z" stroke="none" fill="#e7792c"/>
  </g>
</svg>
