<svg xmlns="http://www.w3.org/2000/svg" width="380.231" height="403.231" viewBox="0 0 380.231 403.231">
  <g id="Group_388" data-name="Group 388" transform="translate(133.949 -1115.84)">
    <g id="Polygon_3" data-name="Polygon 3" transform="translate(39.292 1147.84) rotate(45)" fill="none">
      <path d="M122.635,30.389a20,20,0,0,1,34.73,0L262.9,215.077A20,20,0,0,1,245.536,245H34.464A20,20,0,0,1,17.1,215.077Z" stroke="none"/>
      <path d="M 140 100.7782440185547 L 86.158935546875 195.0000305175781 L 193.8410339355469 195.0000305175781 L 140 100.7782440185547 M 140 20.31126403808594 C 146.7629547119141 20.31126403808594 153.5259094238281 23.67034912109375 157.3648376464844 30.38851928710938 L 262.9012451171875 215.0771789550781 C 270.5201721191406 228.4103546142578 260.892822265625 245.0000152587891 245.5364074707031 245.0000152587891 L 34.46357727050781 245.0000152587891 C 19.107177734375 245.0000152587891 9.479827880859375 228.4103546142578 17.0987548828125 215.0771789550781 L 122.6351623535156 30.38851928710938 C 126.4740905761719 23.67034912109375 133.2370452880859 20.31126403808594 140 20.31126403808594 Z" stroke="none" fill="#e7792c"/>
    </g>
    <g id="Polygon_4" data-name="Polygon 4" transform="translate(48.292 1115.84) rotate(45)" fill="none">
      <path d="M122.635,30.389a20,20,0,0,1,34.73,0L262.9,215.077A20,20,0,0,1,245.536,245H34.464A20,20,0,0,1,17.1,215.077Z" stroke="none"/>
      <path d="M 140 30.31126403808594 C 138.255126953125 30.31126403808594 133.9162139892578 30.80223083496094 131.3175354003906 35.34989929199219 L 25.7811279296875 220.0386047363281 C 23.20245361328125 224.5513610839844 24.94541931152344 228.5216827392578 25.814453125 230.0192718505859 C 26.68354797363281 231.5168151855469 29.26603698730469 234.9999847412109 34.46357727050781 234.9999847412109 L 245.5364074707031 234.9999847412109 C 250.7339630126953 234.9999847412109 253.3164520263672 231.5168151855469 254.1855010986328 230.0192260742188 C 255.0545806884766 228.5216827392578 256.7975463867188 224.5513610839844 254.2188415527344 220.0386047363281 L 148.6824645996094 35.34989929199219 C 146.0837860107422 30.80223083496094 141.744873046875 30.31126403808594 140 30.31126403808594 M 140 20.31126403808594 C 146.7629699707031 20.31126403808594 153.5259399414062 23.67034912109375 157.3648681640625 30.38851928710938 L 262.9012451171875 215.0772247314453 C 270.5202026367188 228.4103546142578 260.892822265625 244.9999847412109 245.5364074707031 244.9999847412109 L 34.46357727050781 244.9999847412109 C 19.10711669921875 244.9999847412109 9.47979736328125 228.4103546142578 17.09869384765625 215.0772247314453 L 122.6351318359375 30.38851928710938 C 126.4740600585938 23.67034912109375 133.2370300292969 20.31126403808594 140 20.31126403808594 Z" stroke="none" fill="#e7792c"/>
    </g>
  </g>
</svg>
