<svg xmlns="http://www.w3.org/2000/svg" id="prefix__user" width="17.825" height="21.365" viewBox="0 0 17.825 21.365">
    <defs>
        <style>
            .prefix__cls-1{fill:#84bf41}
        </style>
    </defs>
    <path id="prefix__Path_400" d="M92.177 10.291a4.979 4.979 0 0 0 3.638-1.508 4.979 4.979 0 0 0 1.507-3.638 4.98 4.98 0 0 0-1.508-3.638 5.145 5.145 0 0 0-7.277 0 4.979 4.979 0 0 0-1.508 3.638 4.979 4.979 0 0 0 1.508 3.638 4.98 4.98 0 0 0 3.64 1.508zm0 0" class="prefix__cls-1" data-name="Path 400" transform="translate(-83.4)"/>
    <path id="prefix__Path_401" d="M17.781 253.425a12.71 12.71 0 0 0-.173-1.35 10.637 10.637 0 0 0-.332-1.357 6.7 6.7 0 0 0-.558-1.266 4.777 4.777 0 0 0-.841-1.1 3.71 3.71 0 0 0-1.209-.759 4.177 4.177 0 0 0-1.543-.279 1.566 1.566 0 0 0-.836.355c-.251.163-.544.353-.871.562a4.992 4.992 0 0 1-1.127.5 4.377 4.377 0 0 1-2.758 0 4.98 4.98 0 0 1-1.126-.5c-.324-.207-.618-.4-.872-.562a1.564 1.564 0 0 0-.836-.355 4.172 4.172 0 0 0-1.543.28 3.706 3.706 0 0 0-1.209.759 4.777 4.777 0 0 0-.841 1.1 6.717 6.717 0 0 0-.558 1.266 10.661 10.661 0 0 0-.332 1.357 12.665 12.665 0 0 0-.173 1.35c-.028.409-.043.833-.043 1.262a3.548 3.548 0 0 0 1.054 2.684 3.793 3.793 0 0 0 2.715.99h10.287a3.792 3.792 0 0 0 2.715-.99 3.546 3.546 0 0 0 1.054-2.684c-.001-.432-.015-.856-.044-1.263zm0 0" class="prefix__cls-1" data-name="Path 401" transform="translate(0 -236.996)"/>
</svg>
